<svg width="32" height="32" fill="none" xmlns="http://www.w3.org/2000/svg"><path fill-rule="evenodd" clip-rule="evenodd" d="M16.84 1.993 16.395.829l-.82.937L3.419 15.651l-.486.555.547.495 7.502 6.79-1.702 2.743-.407.655.666.389 6.222 3.629.377.22.378-.22 12.098-7.028.59-.343-.286-.62-6.913-14.978-.584-1.265-.734 1.183-.996 1.604-2.851-7.467Zm1.857 9.069-2.814-7.37-10.85 12.392 6.753 6.112 6.911-11.134Zm-5.78 12.158 6.453-10.397 2.697 7.063-5.965 6.217-3.186-2.884Zm-.805 1.295 3.524 3.19.54.488.504-.526 6.798-7.086.33-.343-.17-.443-3.274-8.574.863-1.39 6.043 13.094-11.13 6.466-5.18-3.02 1.152-1.856Z" fill="#F44436"/></svg>