<svg xmlns="http://www.w3.org/2000/svg" width="1000" height="1034.298"><path style="fill:#000;fill-opacity:1;stroke:none" d="M893.702 1632.441c-321.088 0-459.683 285.803-459.683 285.803l40.797 29.204s-51.339 97.63-49.918 222.855c0 255.63 203.489 496.436 503.04 496.436 272.133 0 496.931-221.498 496.931-495.807 0-357.762-277.432-538.49-531.167-538.49zm2.785 87.21c250.866 0 445.53 202.156 445.53 437.173 0 249.133-187.374 422.39-405.721 422.39-160.697 0-305.662-122.375-305.662-290.16 0-96.91 51.508-164.472 109.226-200.479l8.447 9.166c-15.796 12.36-60.836 84.708-60.836 155.818 0 132.011 103.524 223.439 233.953 223.439 166.144 0 276.95-141.708 276.95-306.245 0-191.438-168.98-353.963-372.337-353.963-112.478 0-207.944 48.373-262.798 91.075l-8.537-7.728c71.766-110.653 196.046-180.486 341.785-180.486zm-74.854 183.136c129.771 0 256.47 85.852 288.094 207.714l-11.502 4.358c-56.783-74.985-149.826-137.127-259.698-137.127-202.177 0-308.354 183.716-292.766 337.157l-11.907 4.359s-22.33-49.273-22.33-107.699c0-169.195 138.945-308.762 310.11-308.762zm85.772 212.341c61.44 0 110.574 49.798 110.574 108.912 0 48.92-31.406 77.91-31.406 77.91l37.202 26.014s-36.89 57.916-112.19 57.916c-72.032 0-135.736-58.139-135.736-136.32 0-80.558 69.294-134.432 131.556-134.432z" transform="translate(-424.869 -1632.441)"/></svg>