<svg width="32" height="32" fill="none" xmlns="http://www.w3.org/2000/svg"><g clip-path="url(#a)"><path d="M15.003 0C4.728 0 .293 8.842.293 8.842l1.305.904s-1.643 3.02-1.597 6.895C0 24.55 6.513 32 16.098 32 24.807 32 32 25.147 32 16.66 32 5.592 23.122 0 15.003 0Zm.089 2.698c8.027 0 14.257 6.255 14.257 13.526 0 7.708-5.996 13.068-12.983 13.068-5.143 0-9.782-3.786-9.782-8.977 0-2.998 1.649-5.089 3.496-6.203l.27.284c-.505.382-1.947 2.62-1.947 4.82 0 4.085 3.313 6.914 7.487 6.914 5.316 0 8.862-4.385 8.862-9.475 0-5.923-5.407-10.951-11.915-10.951-3.599 0-6.654 1.496-8.41 2.817l-.272-.239C6.45 4.86 10.428 2.698 15.092 2.698Zm-2.396 5.666c4.153 0 8.208 2.656 9.22 6.427l-.369.134c-1.817-2.32-4.794-4.242-8.31-4.242-6.47 0-9.867 5.684-9.368 10.431l-.381.135s-.715-1.524-.715-3.332c0-5.235 4.446-9.553 9.923-9.553Zm2.745 6.57c1.966 0 3.539 1.54 3.539 3.37 0 1.513-1.006 2.41-1.006 2.41l1.191.805s-1.18 1.792-3.59 1.792c-2.305 0-4.344-1.8-4.344-4.218 0-2.492 2.218-4.16 4.21-4.16Z" fill="#000"/></g><defs><clipPath id="a"><path fill="#fff" d="M0 0h32v32H0z"/></clipPath></defs></svg>